<svg width="377" height="51" viewBox="0 0 377 51" fill="none" xmlns="http://www.w3.org/2000/svg">
<path d="M154.15 0.704494L141.982 43H138.794L128.176 5.092L117.354 43H114.341L102.465 0.704494H105.01L115.862 40.1335L127.065 0.704494H129.375L140.403 40.1335L151.635 0.704494H154.15ZM153.548 43L169.05 0.704494H172.268L187.712 43H185.196L180.341 29.662H160.977L156.005 43H153.548ZM161.796 27.1465H179.463L170.688 3.16149L161.796 27.1465ZM186.845 3.0445V0.704494H217.002V3.0445H203.664V43H201.353V3.0445H186.845ZM238.328 0.119495C241.116 0.119495 243.573 0.723995 245.699 1.933C247.824 3.1225 249.521 4.6825 250.788 6.613C252.075 8.5435 252.836 10.591 253.07 12.7555H250.496C250.125 10.9225 249.423 9.23575 248.39 7.69525C247.376 6.13525 246.03 4.88725 244.353 3.95125C242.676 2.99575 240.668 2.518 238.328 2.518C235.169 2.518 232.536 3.2395 230.43 4.6825C228.324 6.10599 226.745 8.26074 225.692 11.1467C224.639 14.0132 224.112 17.611 224.112 21.94C224.112 28.4335 225.292 33.2695 227.651 36.448C230.011 39.607 233.57 41.1865 238.328 41.1865C240.668 41.1865 242.676 40.7185 244.353 39.7825C246.03 38.8465 247.376 37.6082 248.39 36.0677C249.423 34.5077 250.125 32.8112 250.496 30.9782H253.07C252.894 32.5772 252.416 34.1372 251.636 35.6582C250.856 37.1597 249.823 38.5052 248.536 39.6947C247.268 40.8842 245.767 41.83 244.031 42.532C242.315 43.234 240.414 43.585 238.328 43.585C234.681 43.585 231.61 42.7758 229.114 41.1572C226.618 39.5192 224.726 37.1012 223.439 33.9032C222.172 30.6857 221.538 26.698 221.538 21.94C221.538 17.182 222.172 13.1845 223.439 9.9475C224.726 6.7105 226.618 4.26325 229.114 2.60575C231.61 0.948245 234.681 0.119495 238.328 0.119495ZM292.451 22.174H265.307V43H263.025V0.704494H265.307V19.7755H292.451V0.704494H294.732V43H292.451V22.174ZM304.661 43V38.4955H308.2V43H304.661ZM318.154 0.704494H320.436V43H318.154V0.704494ZM347.626 43.585C344.077 43.585 341.006 42.766 338.412 41.128C335.838 39.4705 333.849 37.033 332.445 33.8155C331.061 30.598 330.369 26.6395 330.369 21.94C330.369 17.2015 331.061 13.2137 332.445 9.97675C333.849 6.73975 335.838 4.29249 338.412 2.63499C341.006 0.957995 344.077 0.119495 347.626 0.119495C351.175 0.119495 354.227 0.948245 356.781 2.60575C359.336 4.26325 361.296 6.7105 362.661 9.9475C364.026 13.1845 364.708 17.182 364.708 21.94C364.708 26.6395 364.026 30.598 362.661 33.8155C361.296 37.0135 359.336 39.4412 356.781 41.0987C354.227 42.7562 351.175 43.585 347.626 43.585ZM347.626 41.1865C350.785 41.1865 353.437 40.4845 355.582 39.0805C357.747 37.6765 359.375 35.551 360.467 32.704C361.578 29.8375 362.134 26.2495 362.134 21.94C362.134 17.572 361.569 13.9547 360.438 11.0882C359.326 8.22175 357.688 6.07675 355.524 4.65324C353.379 3.22975 350.746 2.518 347.626 2.518C344.506 2.518 341.854 3.2395 339.67 4.6825C337.486 6.10599 335.819 8.26074 334.668 11.1467C333.518 14.0132 332.943 17.611 332.943 21.94C332.943 26.269 333.518 29.857 334.668 32.704C335.819 35.551 337.486 37.6765 339.67 39.0805C341.854 40.4845 344.506 41.1865 347.626 41.1865Z" fill="#B9AFC0"/>
<path d="M110.335 44.09H110.897L113.785 48.335V44.09H114.37V49.3325H113.807L110.92 45.08V49.3325H110.335V44.09ZM115.425 44.09H116.01V49.3325H115.425V44.09ZM117.066 44.09H120.441V44.585H117.651V46.46H119.743V46.955H117.651V48.8375H120.441V49.3325H117.066V44.09ZM124.192 44.09H126.134C126.684 44.09 127.112 44.22 127.417 44.48C127.727 44.74 127.882 45.125 127.882 45.635C127.882 46.15 127.729 46.535 127.424 46.79C127.119 47.045 126.689 47.1725 126.134 47.1725H124.777V49.3325H124.192V44.09ZM126.089 46.6775C126.464 46.6775 126.759 46.6025 126.974 46.4525C127.189 46.2975 127.297 46.025 127.297 45.635C127.297 45.24 127.189 44.9675 126.974 44.8175C126.759 44.6625 126.464 44.585 126.089 44.585H124.777V46.6775H126.089ZM131.116 49.445C130.601 49.445 130.133 49.3325 129.713 49.1075C129.298 48.8775 128.971 48.555 128.731 48.14C128.491 47.725 128.371 47.25 128.371 46.715C128.371 46.18 128.491 45.705 128.731 45.29C128.971 44.875 129.298 44.5525 129.713 44.3225C130.128 44.0925 130.596 43.9775 131.116 43.9775C131.636 43.9775 132.103 44.0925 132.518 44.3225C132.933 44.5525 133.261 44.875 133.501 45.29C133.741 45.705 133.861 46.18 133.861 46.715C133.861 47.25 133.741 47.725 133.501 48.14C133.261 48.555 132.931 48.8775 132.511 49.1075C132.096 49.3325 131.631 49.445 131.116 49.445ZM131.116 48.92C131.516 48.92 131.881 48.83 132.211 48.65C132.541 48.47 132.801 48.215 132.991 47.885C133.181 47.55 133.276 47.16 133.276 46.715C133.276 46.275 133.181 45.89 132.991 45.56C132.806 45.225 132.548 44.9675 132.218 44.7875C131.893 44.6025 131.531 44.51 131.131 44.51C130.726 44.51 130.358 44.6 130.028 44.78C129.698 44.96 129.436 45.2175 129.241 45.5525C129.051 45.8875 128.956 46.275 128.956 46.715C128.956 47.16 129.051 47.55 129.241 47.885C129.431 48.215 129.691 48.47 130.021 48.65C130.351 48.83 130.716 48.92 131.116 48.92ZM135.731 44.585H134.051V44.09H137.996V44.585H136.316V49.3325H135.731V44.585ZM138.745 44.09H140.77C141.315 44.09 141.728 44.2175 142.008 44.4725C142.293 44.7275 142.435 45.105 142.435 45.605C142.435 45.985 142.323 46.3075 142.098 46.5725C141.878 46.8375 141.57 47.005 141.175 47.075L142.42 49.3325H141.813L140.583 47.105H139.33V49.3325H138.745V44.09ZM140.695 46.61C141.055 46.61 141.338 46.525 141.543 46.355C141.748 46.185 141.85 45.935 141.85 45.605C141.85 45.235 141.748 44.9725 141.543 44.8175C141.343 44.6625 141.06 44.585 140.695 44.585H139.33V46.61H140.695ZM142.997 48.92L146.057 44.585H143.072V44.09H146.762V44.51L143.71 48.845H146.875V49.3325H142.997V48.92ZM147.776 44.09H151.151V44.585H148.361V46.46H150.453V46.955H148.361V48.8375H151.151V49.3325H147.776V44.09ZM152.053 44.09H154.378C154.833 44.09 155.181 44.21 155.421 44.45C155.661 44.685 155.781 45.0325 155.781 45.4925C155.781 45.7625 155.718 45.9975 155.593 46.1975C155.468 46.3925 155.303 46.5375 155.098 46.6325C155.673 46.7825 155.961 47.195 155.961 47.87C155.961 48.165 155.896 48.425 155.766 48.65C155.641 48.87 155.466 49.04 155.241 49.16C155.021 49.275 154.776 49.3325 154.506 49.3325H152.053V44.09ZM154.333 46.4C154.613 46.4 154.826 46.325 154.971 46.175C155.121 46.02 155.196 45.7975 155.196 45.5075C155.196 45.1775 155.123 44.9425 154.978 44.8025C154.833 44.6575 154.598 44.585 154.273 44.585H152.638V46.4H154.333ZM154.378 48.8375C154.708 48.8375 154.956 48.7625 155.121 48.6125C155.291 48.4625 155.376 48.21 155.376 47.855C155.376 47.51 155.288 47.265 155.113 47.12C154.938 46.97 154.666 46.895 154.296 46.895H152.638V48.8375H154.378ZM158.913 49.445C158.223 49.445 157.701 49.27 157.346 48.92C156.996 48.57 156.821 48.0825 156.821 47.4575V44.09H157.406V47.5025C157.406 47.9775 157.538 48.3325 157.803 48.5675C158.068 48.8025 158.438 48.92 158.913 48.92C159.388 48.92 159.758 48.8025 160.023 48.5675C160.288 48.3325 160.421 47.9775 160.421 47.5025V44.09H161.006V47.4575C161.006 48.0825 160.828 48.57 160.473 48.92C160.123 49.27 159.603 49.445 158.913 49.445ZM162.362 49.445C162.227 49.445 162.087 49.435 161.942 49.415C161.802 49.395 161.692 49.3675 161.612 49.3325V48.8225C161.687 48.8525 161.787 48.8775 161.912 48.8975C162.042 48.9125 162.157 48.92 162.257 48.92C162.792 48.92 163.059 48.655 163.059 48.125V44.09H163.644V48.17C163.644 48.575 163.527 48.89 163.292 49.115C163.057 49.335 162.747 49.445 162.362 49.445ZM164.658 44.09H168.033V44.585H165.243V46.46H167.336V46.955H165.243V48.8375H168.033V49.3325H164.658V44.09ZM170.331 49.445C170.041 49.445 169.756 49.42 169.476 49.37C169.196 49.32 168.966 49.2525 168.786 49.1675V48.6125C169.256 48.8175 169.761 48.92 170.301 48.92C170.751 48.92 171.081 48.8475 171.291 48.7025C171.506 48.5575 171.613 48.34 171.613 48.05C171.613 47.845 171.568 47.6825 171.478 47.5625C171.393 47.4425 171.268 47.3425 171.103 47.2625C170.938 47.1775 170.653 47.0525 170.248 46.8875C169.753 46.6875 169.393 46.47 169.168 46.235C168.948 45.995 168.838 45.6925 168.838 45.3275C168.838 45.0625 168.908 44.8275 169.048 44.6225C169.193 44.4175 169.396 44.26 169.656 44.15C169.916 44.035 170.216 43.9775 170.556 43.9775C170.831 43.9775 171.078 44 171.298 44.045C171.523 44.085 171.743 44.1525 171.958 44.2475V44.78C171.538 44.595 171.098 44.5025 170.638 44.5025C170.238 44.5025 169.936 44.575 169.731 44.72C169.526 44.865 169.423 45.0675 169.423 45.3275C169.423 45.5025 169.466 45.6525 169.551 45.7775C169.636 45.9025 169.768 46.0175 169.948 46.1225C170.133 46.2275 170.386 46.3425 170.706 46.4675C171.066 46.6075 171.348 46.74 171.553 46.865C171.758 46.985 171.916 47.14 172.026 47.33C172.141 47.515 172.198 47.755 172.198 48.05C172.198 48.495 172.041 48.84 171.726 49.085C171.411 49.325 170.946 49.445 170.331 49.445ZM172.755 48.92L175.815 44.585H172.83V44.09H176.52V44.51L173.468 48.845H176.633V49.3325H172.755V48.92ZM182.183 42.4925H182.791L182.191 43.7675H181.673L182.183 42.4925ZM181.778 49.445C181.488 49.445 181.203 49.42 180.923 49.37C180.643 49.32 180.413 49.2525 180.233 49.1675V48.6125C180.703 48.8175 181.208 48.92 181.748 48.92C182.198 48.92 182.528 48.8475 182.738 48.7025C182.953 48.5575 183.061 48.34 183.061 48.05C183.061 47.845 183.016 47.6825 182.926 47.5625C182.841 47.4425 182.716 47.3425 182.551 47.2625C182.386 47.1775 182.101 47.0525 181.696 46.8875C181.201 46.6875 180.841 46.47 180.616 46.235C180.396 45.995 180.286 45.6925 180.286 45.3275C180.286 45.0625 180.356 44.8275 180.496 44.6225C180.641 44.4175 180.843 44.26 181.103 44.15C181.363 44.035 181.663 43.9775 182.003 43.9775C182.278 43.9775 182.526 44 182.746 44.045C182.971 44.085 183.191 44.1525 183.406 44.2475V44.78C182.986 44.595 182.546 44.5025 182.086 44.5025C181.686 44.5025 181.383 44.575 181.178 44.72C180.973 44.865 180.871 45.0675 180.871 45.3275C180.871 45.5025 180.913 45.6525 180.998 45.7775C181.083 45.9025 181.216 46.0175 181.396 46.1225C181.581 46.2275 181.833 46.3425 182.153 46.4675C182.513 46.6075 182.796 46.74 183.001 46.865C183.206 46.985 183.363 47.14 183.473 47.33C183.588 47.515 183.646 47.755 183.646 48.05C183.646 48.495 183.488 48.84 183.173 49.085C182.858 49.325 182.393 49.445 181.778 49.445ZM184.057 44.09H184.664L185.954 48.3425L187.244 44.09H187.709L188.977 48.35L190.267 44.09H190.874L189.307 49.3325H188.737L187.462 45.05L186.194 49.3325H185.624L184.057 44.09ZM191.78 44.09H192.365V49.3325H191.78V44.09ZM193.421 44.09H196.796V44.585H194.006V46.46H196.098V46.955H194.006V48.8375H196.796V49.3325H193.421V44.09ZM199.415 43.7675C199.315 43.7675 199.228 43.7325 199.153 43.6625C199.078 43.5875 199.04 43.5 199.04 43.4C199.04 43.3 199.078 43.215 199.153 43.145C199.228 43.07 199.315 43.0325 199.415 43.0325C199.515 43.0325 199.6 43.07 199.67 43.145C199.745 43.215 199.783 43.3 199.783 43.4C199.783 43.5 199.745 43.5875 199.67 43.6625C199.6 43.7325 199.515 43.7675 199.415 43.7675ZM197.548 48.92L200.608 44.585H197.623V44.09H201.313V44.51L198.26 48.845H201.425V49.3325H197.548V48.92ZM202.327 44.09H205.702V44.585H202.912V46.46H205.004V46.955H202.912V48.8375H205.702V49.3325H202.327V44.09ZM209.097 49.445C208.567 49.445 208.092 49.3325 207.672 49.1075C207.257 48.8825 206.932 48.565 206.697 48.155C206.462 47.74 206.344 47.26 206.344 46.715C206.344 46.17 206.462 45.6925 206.697 45.2825C206.932 44.8675 207.257 44.5475 207.672 44.3225C208.092 44.0925 208.567 43.9775 209.097 43.9775C209.822 43.9775 210.422 44.1675 210.897 44.5475V45.1175C210.447 44.7125 209.862 44.51 209.142 44.51C208.717 44.51 208.337 44.6 208.002 44.78C207.667 44.96 207.404 45.2175 207.214 45.5525C207.024 45.8825 206.929 46.27 206.929 46.715C206.929 47.16 207.024 47.55 207.214 47.885C207.404 48.215 207.664 48.47 207.994 48.65C208.329 48.83 208.707 48.92 209.127 48.92C209.372 48.92 209.609 48.8925 209.839 48.8375C210.069 48.7775 210.259 48.7 210.409 48.605V46.9925H209.307V46.4975H210.994V48.8525C210.749 49.0575 210.469 49.2075 210.154 49.3025C209.844 49.3975 209.492 49.445 209.097 49.445ZM214.487 49.445C213.972 49.445 213.505 49.3325 213.085 49.1075C212.67 48.8775 212.342 48.555 212.102 48.14C211.862 47.725 211.742 47.25 211.742 46.715C211.742 46.18 211.862 45.705 212.102 45.29C212.342 44.875 212.67 44.5525 213.085 44.3225C213.5 44.0925 213.967 43.9775 214.487 43.9775C215.007 43.9775 215.475 44.0925 215.89 44.3225C216.305 44.5525 216.632 44.875 216.872 45.29C217.112 45.705 217.232 46.18 217.232 46.715C217.232 47.25 217.112 47.725 216.872 48.14C216.632 48.555 216.302 48.8775 215.882 49.1075C215.467 49.3325 215.002 49.445 214.487 49.445ZM214.487 48.92C214.887 48.92 215.252 48.83 215.582 48.65C215.912 48.47 216.172 48.215 216.362 47.885C216.552 47.55 216.647 47.16 216.647 46.715C216.647 46.275 216.552 45.89 216.362 45.56C216.177 45.225 215.92 44.9675 215.59 44.7875C215.265 44.6025 214.902 44.51 214.502 44.51C214.097 44.51 213.73 44.6 213.4 44.78C213.07 44.96 212.807 45.2175 212.612 45.5525C212.422 45.8875 212.327 46.275 212.327 46.715C212.327 47.16 212.422 47.55 212.612 47.885C212.802 48.215 213.062 48.47 213.392 48.65C213.722 48.83 214.087 48.92 214.487 48.92ZM220.982 44.09H222.924C223.474 44.09 223.902 44.22 224.207 44.48C224.517 44.74 224.672 45.125 224.672 45.635C224.672 46.15 224.519 46.535 224.214 46.79C223.909 47.045 223.479 47.1725 222.924 47.1725H221.567V49.3325H220.982V44.09ZM222.879 46.6775C223.254 46.6775 223.549 46.6025 223.764 46.4525C223.979 46.2975 224.087 46.025 224.087 45.635C224.087 45.24 223.979 44.9675 223.764 44.8175C223.549 44.6625 223.254 44.585 222.879 44.585H221.567V46.6775H222.879ZM227.905 49.445C227.39 49.445 226.923 49.3325 226.503 49.1075C226.088 48.8775 225.76 48.555 225.52 48.14C225.28 47.725 225.16 47.25 225.16 46.715C225.16 46.18 225.28 45.705 225.52 45.29C225.76 44.875 226.088 44.5525 226.503 44.3225C226.918 44.0925 227.385 43.9775 227.905 43.9775C228.425 43.9775 228.893 44.0925 229.308 44.3225C229.723 44.5525 230.05 44.875 230.29 45.29C230.53 45.705 230.65 46.18 230.65 46.715C230.65 47.25 230.53 47.725 230.29 48.14C230.05 48.555 229.72 48.8775 229.3 49.1075C228.885 49.3325 228.42 49.445 227.905 49.445ZM227.905 48.92C228.305 48.92 228.67 48.83 229 48.65C229.33 48.47 229.59 48.215 229.78 47.885C229.97 47.55 230.065 47.16 230.065 46.715C230.065 46.275 229.97 45.89 229.78 45.56C229.595 45.225 229.338 44.9675 229.008 44.7875C228.683 44.6025 228.32 44.51 227.92 44.51C227.515 44.51 227.148 44.6 226.818 44.78C226.488 44.96 226.225 45.2175 226.03 45.5525C225.84 45.8875 225.745 46.275 225.745 46.715C225.745 47.16 225.84 47.55 226.03 47.885C226.22 48.215 226.48 48.47 226.81 48.65C227.14 48.83 227.505 48.92 227.905 48.92ZM230.91 44.09H231.517L232.807 48.3425L234.097 44.09H234.562L235.83 48.35L237.12 44.09H237.727L236.16 49.3325H235.59L234.315 45.05L233.047 49.3325H232.477L230.91 44.09ZM238.633 44.09H239.218V49.3325H238.633V44.09ZM240.274 44.09H243.649V44.585H240.859V46.46H242.951V46.955H240.859V48.8375H243.649V49.3325H240.274V44.09ZM245.931 44.585H244.251V44.09H248.196V44.585H246.516V49.3325H245.931V44.585ZM248.945 44.09H250.97C251.515 44.09 251.928 44.2175 252.208 44.4725C252.493 44.7275 252.635 45.105 252.635 45.605C252.635 45.985 252.523 46.3075 252.298 46.5725C252.078 46.8375 251.77 47.005 251.375 47.075L252.62 49.3325H252.013L250.783 47.105H249.53V49.3325H248.945V44.09ZM250.895 46.61C251.255 46.61 251.538 46.525 251.743 46.355C251.948 46.185 252.05 45.935 252.05 45.605C252.05 45.235 251.948 44.9725 251.743 44.8175C251.543 44.6625 251.26 44.585 250.895 44.585H249.53V46.61H250.895ZM253.197 48.92L256.257 44.585H253.272V44.09H256.962V44.51L253.91 48.845H257.075V49.3325H253.197V48.92ZM259.728 44.09H260.276L262.368 49.3325H261.768L261.206 47.93H258.791L258.236 49.3325H257.636L259.728 44.09ZM261.041 47.435L259.998 44.765L258.963 47.435H261.041ZM263.385 48.9575H263.992L263.31 50.435H262.785L263.385 48.9575ZM267.589 48.92L270.649 44.585H267.664V44.09H271.354V44.51L268.302 48.845H271.467V49.3325H267.589V48.92ZM274.7 49.445C274.185 49.445 273.717 49.3325 273.297 49.1075C272.882 48.8775 272.555 48.555 272.315 48.14C272.075 47.725 271.955 47.25 271.955 46.715C271.955 46.18 272.075 45.705 272.315 45.29C272.555 44.875 272.882 44.5525 273.297 44.3225C273.712 44.0925 274.18 43.9775 274.7 43.9775C275.22 43.9775 275.687 44.0925 276.102 44.3225C276.517 44.5525 276.845 44.875 277.085 45.29C277.325 45.705 277.445 46.18 277.445 46.715C277.445 47.25 277.325 47.725 277.085 48.14C276.845 48.555 276.515 48.8775 276.095 49.1075C275.68 49.3325 275.215 49.445 274.7 49.445ZM274.7 48.92C275.1 48.92 275.465 48.83 275.795 48.65C276.125 48.47 276.385 48.215 276.575 47.885C276.765 47.55 276.86 47.16 276.86 46.715C276.86 46.275 276.765 45.89 276.575 45.56C276.39 45.225 276.132 44.9675 275.802 44.7875C275.477 44.6025 275.115 44.51 274.715 44.51C274.31 44.51 273.942 44.6 273.612 44.78C273.282 44.96 273.02 45.2175 272.825 45.5525C272.635 45.8875 272.54 46.275 272.54 46.715C272.54 47.16 272.635 47.55 272.825 47.885C273.015 48.215 273.275 48.47 273.605 48.65C273.935 48.83 274.3 48.92 274.7 48.92ZM279.549 49.445C279.259 49.445 278.974 49.42 278.694 49.37C278.414 49.32 278.184 49.2525 278.004 49.1675V48.6125C278.474 48.8175 278.979 48.92 279.519 48.92C279.969 48.92 280.299 48.8475 280.509 48.7025C280.724 48.5575 280.832 48.34 280.832 48.05C280.832 47.845 280.787 47.6825 280.697 47.5625C280.612 47.4425 280.487 47.3425 280.322 47.2625C280.157 47.1775 279.872 47.0525 279.467 46.8875C278.972 46.6875 278.612 46.47 278.387 46.235C278.167 45.995 278.057 45.6925 278.057 45.3275C278.057 45.0625 278.127 44.8275 278.267 44.6225C278.412 44.4175 278.614 44.26 278.874 44.15C279.134 44.035 279.434 43.9775 279.774 43.9775C280.049 43.9775 280.297 44 280.517 44.045C280.742 44.085 280.962 44.1525 281.177 44.2475V44.78C280.757 44.595 280.317 44.5025 279.857 44.5025C279.457 44.5025 279.154 44.575 278.949 44.72C278.744 44.865 278.642 45.0675 278.642 45.3275C278.642 45.5025 278.684 45.6525 278.769 45.7775C278.854 45.9025 278.987 46.0175 279.167 46.1225C279.352 46.2275 279.604 46.3425 279.924 46.4675C280.284 46.6075 280.567 46.74 280.772 46.865C280.977 46.985 281.134 47.14 281.244 47.33C281.359 47.515 281.417 47.755 281.417 48.05C281.417 48.495 281.259 48.84 280.944 49.085C280.629 49.325 280.164 49.445 279.549 49.445ZM283.504 44.585H281.824V44.09H285.769V44.585H284.089V49.3325H283.504V44.585ZM287.524 44.09H288.071L290.164 49.3325H289.564L289.001 47.93H286.586L286.031 49.3325H285.431L287.524 44.09ZM288.836 47.435L287.794 44.765L286.759 47.435H288.836ZM293.325 42.4925H293.932L293.332 43.7675H292.815L293.325 42.4925ZM291.067 44.09H291.63L294.517 48.335V44.09H295.102V49.3325H294.54L291.652 45.08V49.3325H291.067V44.09ZM298.999 44.09H300.942C301.492 44.09 301.919 44.22 302.224 44.48C302.534 44.74 302.689 45.125 302.689 45.635C302.689 46.15 302.537 46.535 302.232 46.79C301.927 47.045 301.497 47.1725 300.942 47.1725H299.584V49.3325H298.999V44.09ZM300.897 46.6775C301.272 46.6775 301.567 46.6025 301.782 46.4525C301.997 46.2975 302.104 46.025 302.104 45.635C302.104 45.24 301.997 44.9675 301.782 44.8175C301.567 44.6625 301.272 44.585 300.897 44.585H299.584V46.6775H300.897ZM303.438 44.09H305.463C306.008 44.09 306.42 44.2175 306.7 44.4725C306.985 44.7275 307.128 45.105 307.128 45.605C307.128 45.985 307.015 46.3075 306.79 46.5725C306.57 46.8375 306.263 47.005 305.868 47.075L307.113 49.3325H306.505L305.275 47.105H304.023V49.3325H303.438V44.09ZM305.388 46.61C305.748 46.61 306.03 46.525 306.235 46.355C306.44 46.185 306.543 45.935 306.543 45.605C306.543 45.235 306.44 44.9725 306.235 44.8175C306.035 44.6625 305.753 44.585 305.388 44.585H304.023V46.61H305.388ZM307.689 48.92L310.749 44.585H307.764V44.09H311.454V44.51L308.402 48.845H311.567V49.3325H307.689V48.92ZM312.468 44.09H315.843V44.585H313.053V46.46H315.146V46.955H313.053V48.8375H315.843V49.3325H312.468V44.09ZM316.746 44.09H318.366C318.926 44.09 319.411 44.195 319.821 44.405C320.236 44.615 320.553 44.915 320.773 45.305C320.993 45.695 321.103 46.155 321.103 46.685C321.103 47.56 320.853 48.22 320.353 48.665C319.853 49.11 319.151 49.3325 318.246 49.3325H316.746V44.09ZM318.208 48.8375C318.998 48.8375 319.581 48.6575 319.956 48.2975C320.331 47.9325 320.518 47.395 320.518 46.685C320.518 46.025 320.336 45.51 319.971 45.14C319.606 44.77 319.068 44.585 318.358 44.585H317.331V48.8375H318.208ZM324.854 44.09H328.229V44.585H325.439V46.46H327.531V46.955H325.439V48.8375H328.229V49.3325H324.854V44.09ZM329.131 44.09H329.716V49.3325H329.131V44.09ZM329.963 46.67L332.416 44.09H333.136L330.683 46.67L333.293 49.3325H332.573L329.963 46.67ZM334.046 44.09H336.071C336.616 44.09 337.028 44.2175 337.308 44.4725C337.593 44.7275 337.736 45.105 337.736 45.605C337.736 45.985 337.623 46.3075 337.398 46.5725C337.178 46.8375 336.871 47.005 336.476 47.075L337.721 49.3325H337.113L335.883 47.105H334.631V49.3325H334.046V44.09ZM335.996 46.61C336.356 46.61 336.638 46.525 336.843 46.355C337.048 46.185 337.151 45.935 337.151 45.605C337.151 45.235 337.048 44.9725 336.843 44.8175C336.643 44.6625 336.361 44.585 335.996 44.585H334.631V46.61H335.996ZM340.243 44.09H340.791L342.883 49.3325H342.283L341.721 47.93H339.306L338.751 49.3325H338.151L340.243 44.09ZM341.556 47.435L340.513 44.765L339.478 47.435H341.556ZM343.787 44.09H344.349L347.237 48.335V44.09H347.822V49.3325H347.259L344.372 45.08V49.3325H343.787V44.09ZM348.87 44.09H352.245V44.585H349.455V46.46H351.547V46.955H349.455V48.8375H352.245V49.3325H348.87V44.09ZM353.147 44.09H353.747L355.727 48.4175L357.707 44.09H358.307V49.3325H357.73V45.2825L355.877 49.3325H355.577L353.725 45.2825V49.3325H353.147V44.09ZM359.291 44.09H359.853V47.8925H359.291V44.09ZM359.568 49.445C359.468 49.445 359.383 49.41 359.313 49.34C359.243 49.27 359.208 49.185 359.208 49.085C359.208 48.985 359.243 48.9 359.313 48.83C359.383 48.76 359.468 48.725 359.568 48.725C359.668 48.725 359.753 48.76 359.823 48.83C359.898 48.9 359.936 48.985 359.936 49.085C359.936 49.185 359.898 49.27 359.823 49.34C359.753 49.41 359.668 49.445 359.568 49.445Z" fill="url(#paint0_linear_61_89)"/>
<mask id="mask0_61_89" style="mask-type:alpha" maskUnits="userSpaceOnUse" x="0" y="1" width="76" height="48">
<path d="M11.625 1H0L18.375 34.375L23.625 24.25L11.625 1Z" fill="white"/>
<path d="M37.125 8.5L20.625 38.875L26.25 49L37.125 29.875L49.125 49L54.75 38.875L37.125 8.5Z" fill="white"/>
<path d="M63.75 1L51.375 24.25L57 34.375L75.375 1H63.75Z" fill="white"/>
</mask>
<g mask="url(#mask0_61_89)">
<rect y="1" width="93.75" height="48" fill="url(#paint1_linear_61_89)"/>
</g>
<defs>
<linearGradient id="paint0_linear_61_89" x1="376.5" y1="46.6659" x2="109.81" y2="46.666" gradientUnits="userSpaceOnUse">
<stop stop-color="#FFC107"/>
<stop offset="0.995364" stop-color="#E76637"/>
</linearGradient>
<linearGradient id="paint1_linear_61_89" x1="93.75" y1="25" x2="5.36132e-07" y2="25" gradientUnits="userSpaceOnUse">
<stop stop-color="#FFC107"/>
<stop offset="0.995364" stop-color="#E76637"/>
</linearGradient>
</defs>
</svg>
