<svg width="377" height="51" viewBox="0 0 377 51" fill="none" xmlns="http://www.w3.org/2000/svg">
<path d="M154.15 0.704494L141.982 43H138.794L128.176 5.092L117.353 43H114.341L102.465 0.704494H105.01L115.862 40.1335L127.064 0.704494H129.375L140.402 40.1335L151.634 0.704494H154.15ZM153.548 43L169.05 0.704494H172.268L187.712 43H185.196L180.341 29.662H160.977L156.005 43H153.548ZM161.796 27.1465H179.463L170.688 3.16149L161.796 27.1465ZM186.845 3.0445V0.704494H217.001V3.0445H203.663V43H201.353V3.0445H186.845ZM238.327 0.119495C241.116 0.119495 243.573 0.723995 245.698 1.933C247.824 3.1225 249.52 4.6825 250.788 6.613C252.075 8.5435 252.835 10.591 253.069 12.7555H250.495C250.125 10.9225 249.423 9.23575 248.389 7.69525C247.375 6.13525 246.03 4.88725 244.353 3.95125C242.676 2.99575 240.667 2.518 238.327 2.518C235.168 2.518 232.536 3.2395 230.43 4.6825C228.324 6.10599 226.744 8.26074 225.691 11.1467C224.638 14.0132 224.112 17.611 224.112 21.94C224.112 28.4335 225.292 33.2695 227.651 36.448C230.011 39.607 233.569 41.1865 238.327 41.1865C240.667 41.1865 242.676 40.7185 244.353 39.7825C246.03 38.8465 247.375 37.6082 248.389 36.0677C249.423 34.5077 250.125 32.8112 250.495 30.9782H253.069C252.894 32.5772 252.416 34.1372 251.636 35.6582C250.856 37.1597 249.823 38.5052 248.536 39.6947C247.268 40.8842 245.767 41.83 244.031 42.532C242.315 43.234 240.414 43.585 238.327 43.585C234.681 43.585 231.61 42.7758 229.114 41.1572C226.618 39.5192 224.726 37.1012 223.439 33.9032C222.172 30.6857 221.538 26.698 221.538 21.94C221.538 17.182 222.172 13.1845 223.439 9.9475C224.726 6.7105 226.618 4.26325 229.114 2.60575C231.61 0.948245 234.681 0.119495 238.327 0.119495ZM292.45 22.174H265.306V43H263.025V0.704494H265.306V19.7755H292.45V0.704494H294.732V43H292.45V22.174ZM304.66 43V38.4955H308.2V43H304.66ZM318.154 0.704494H320.436V43H318.154V0.704494ZM347.626 43.585C344.077 43.585 341.006 42.766 338.412 41.128C335.838 39.4705 333.849 37.033 332.445 33.8155C331.061 30.598 330.368 26.6395 330.368 21.94C330.368 17.2015 331.061 13.2137 332.445 9.97675C333.849 6.73975 335.838 4.29249 338.412 2.63499C341.006 0.957995 344.077 0.119495 347.626 0.119495C351.175 0.119495 354.227 0.948245 356.781 2.60575C359.336 4.26325 361.295 6.7105 362.66 9.9475C364.025 13.1845 364.708 17.182 364.708 21.94C364.708 26.6395 364.025 30.598 362.66 33.8155C361.295 37.0135 359.336 39.4412 356.781 41.0987C354.227 42.7562 351.175 43.585 347.626 43.585ZM347.626 41.1865C350.785 41.1865 353.437 40.4845 355.582 39.0805C357.746 37.6765 359.375 35.551 360.467 32.704C361.578 29.8375 362.134 26.2495 362.134 21.94C362.134 17.572 361.568 13.9547 360.437 11.0882C359.326 8.22175 357.688 6.07675 355.523 4.65324C353.378 3.22975 350.746 2.518 347.626 2.518C344.506 2.518 341.854 3.2395 339.67 4.6825C337.486 6.10599 335.819 8.26074 334.668 11.1467C333.518 14.0132 332.942 17.611 332.942 21.94C332.942 26.269 333.518 29.857 334.668 32.704C335.819 35.551 337.486 37.6765 339.67 39.0805C341.854 40.4845 344.506 41.1865 347.626 41.1865Z" fill="#B9AFC0"/>
<path d="M112.929 49.4453C112.414 49.4453 111.947 49.3328 111.527 49.1078C111.112 48.8778 110.784 48.5553 110.544 48.1403C110.304 47.7253 110.184 47.2503 110.184 46.7153C110.184 46.1803 110.304 45.7053 110.544 45.2903C110.784 44.8753 111.112 44.5528 111.527 44.3228C111.942 44.0928 112.409 43.9778 112.929 43.9778C113.449 43.9778 113.917 44.0928 114.332 44.3228C114.747 44.5528 115.074 44.8753 115.314 45.2903C115.554 45.7053 115.674 46.1803 115.674 46.7153C115.674 47.2503 115.554 47.7253 115.314 48.1403C115.074 48.5553 114.744 48.8778 114.324 49.1078C113.909 49.3328 113.444 49.4453 112.929 49.4453ZM112.929 48.9203C113.329 48.9203 113.694 48.8303 114.024 48.6503C114.354 48.4703 114.614 48.2153 114.804 47.8853C114.994 47.5503 115.089 47.1603 115.089 46.7153C115.089 46.2753 114.994 45.8903 114.804 45.5603C114.619 45.2253 114.362 44.9678 114.032 44.7878C113.707 44.6028 113.344 44.5103 112.944 44.5103C112.539 44.5103 112.172 44.6003 111.842 44.7803C111.512 44.9603 111.249 45.2178 111.054 45.5528C110.864 45.8878 110.769 46.2753 110.769 46.7153C110.769 47.1603 110.864 47.5503 111.054 47.8853C111.244 48.2153 111.504 48.4703 111.834 48.6503C112.164 48.8303 112.529 48.9203 112.929 48.9203ZM121.092 49.4453C120.562 49.4453 120.087 49.3328 119.667 49.1078C119.252 48.8828 118.927 48.5653 118.692 48.1553C118.457 47.7403 118.34 47.2603 118.34 46.7153C118.34 46.1703 118.457 45.6928 118.692 45.2828C118.927 44.8678 119.252 44.5478 119.667 44.3228C120.087 44.0928 120.562 43.9778 121.092 43.9778C121.817 43.9778 122.417 44.1678 122.892 44.5478V45.1178C122.442 44.7128 121.857 44.5103 121.137 44.5103C120.712 44.5103 120.332 44.6003 119.997 44.7803C119.662 44.9603 119.4 45.2178 119.21 45.5528C119.02 45.8828 118.925 46.2703 118.925 46.7153C118.925 47.1603 119.02 47.5503 119.21 47.8853C119.4 48.2153 119.66 48.4703 119.99 48.6503C120.325 48.8303 120.702 48.9203 121.122 48.9203C121.367 48.9203 121.605 48.8928 121.835 48.8378C122.065 48.7778 122.255 48.7003 122.405 48.6053V46.9928H121.302V46.4978H122.99V48.8528C122.745 49.0578 122.465 49.2078 122.15 49.3028C121.84 49.3978 121.487 49.4453 121.092 49.4453ZM125.913 44.0903H126.498V48.8378H129.288V49.3328H125.913V44.0903ZM136.19 50.5253C136.315 50.5253 136.432 50.5003 136.542 50.4503V50.8253C136.417 50.8803 136.252 50.9078 136.047 50.9078C135.837 50.9078 135.662 50.8503 135.522 50.7353C135.387 50.6253 135.32 50.4653 135.32 50.2553C135.32 50.0703 135.372 49.8978 135.477 49.7378C135.582 49.5778 135.717 49.4428 135.882 49.3328H135.897L135.335 47.9303H132.92L132.365 49.3328H131.765L133.857 44.0903H134.405L136.497 49.3328H136.422C136.227 49.4678 136.08 49.6028 135.98 49.7378C135.88 49.8728 135.83 50.0178 135.83 50.1728C135.83 50.2978 135.857 50.3878 135.912 50.4428C135.972 50.4978 136.065 50.5253 136.19 50.5253ZM135.17 47.4353L134.127 44.7653L133.092 47.4353H135.17ZM139.426 44.0903H141.046C141.606 44.0903 142.091 44.1953 142.501 44.4053C142.916 44.6153 143.233 44.9153 143.453 45.3053C143.673 45.6953 143.783 46.1553 143.783 46.6853C143.783 47.5603 143.533 48.2203 143.033 48.6653C142.533 49.1103 141.831 49.3328 140.926 49.3328H139.426V44.0903ZM140.888 48.8378C141.678 48.8378 142.261 48.6578 142.636 48.2978C143.011 47.9328 143.198 47.3953 143.198 46.6853C143.198 46.0253 143.016 45.5103 142.651 45.1403C142.286 44.7703 141.748 44.5853 141.038 44.5853H140.011V48.8378H140.888ZM148.161 44.0903H148.709L150.801 49.3328H150.201L149.639 47.9303H147.224L146.669 49.3328H146.069L148.161 44.0903ZM149.474 47.4353L148.431 44.7653L147.396 47.4353H149.474ZM154.143 49.4453C154.008 49.4453 153.868 49.4353 153.723 49.4153C153.583 49.3953 153.473 49.3678 153.393 49.3328V48.8228C153.468 48.8528 153.568 48.8778 153.693 48.8978C153.823 48.9128 153.938 48.9203 154.038 48.9203C154.573 48.9203 154.84 48.6553 154.84 48.1253V44.0903H155.425V48.1703C155.425 48.5753 155.308 48.8903 155.073 49.1153C154.838 49.3353 154.528 49.4453 154.143 49.4453ZM163.339 44.0903H165.364C165.909 44.0903 166.321 44.2178 166.601 44.4728C166.886 44.7278 167.029 45.1053 167.029 45.6053C167.029 45.9853 166.916 46.3078 166.691 46.5728C166.471 46.8378 166.164 47.0053 165.769 47.0753L167.014 49.3328H166.406L165.176 47.1053H163.924V49.3328H163.339V44.0903ZM165.289 46.6103C165.649 46.6103 165.931 46.5253 166.136 46.3553C166.341 46.1853 166.444 45.9353 166.444 45.6053C166.444 45.2353 166.341 44.9728 166.136 44.8178C165.936 44.6628 165.654 44.5853 165.289 44.5853H163.924V46.6103H165.289ZM171.561 44.0903H172.109L174.201 49.3328H173.601L173.039 47.9303H170.624L170.069 49.3328H169.469L171.561 44.0903ZM172.874 47.4353L171.831 44.7653L170.796 47.4353H172.874ZM176.87 48.9203L179.93 44.5853H176.945V44.0903H180.635V44.5103L177.582 48.8453H180.747V49.3328H176.87V48.9203ZM183.674 44.0903H187.049V44.5853H184.259V46.4603H186.351V46.9553H184.259V48.8378H187.049V49.3328H183.674V44.0903ZM189.976 44.0903H190.576L192.556 48.4178L194.536 44.0903H195.136V49.3328H194.559V45.2828L192.706 49.3328H192.406L190.554 45.2828V49.3328H189.976V44.0903ZM198.662 48.9578H199.27L198.587 50.4353H198.062L198.662 48.9578ZM207.067 44.0903H208.687C209.247 44.0903 209.732 44.1953 210.142 44.4053C210.557 44.6153 210.874 44.9153 211.094 45.3053C211.314 45.6953 211.424 46.1553 211.424 46.6853C211.424 47.5603 211.174 48.2203 210.674 48.6653C210.174 49.1103 209.472 49.3328 208.567 49.3328H207.067V44.0903ZM208.529 48.8378C209.319 48.8378 209.902 48.6578 210.277 48.2978C210.652 47.9328 210.839 47.3953 210.839 46.6853C210.839 46.0253 210.657 45.5103 210.292 45.1403C209.927 44.7703 209.389 44.5853 208.679 44.5853H207.652V48.8378H208.529ZM213.864 48.9203L216.924 44.5853H213.939V44.0903H217.629V44.5103L214.576 48.8453H217.741V49.3328H213.864V48.9203ZM220.675 44.0903H221.26V49.3328H220.675V44.0903ZM224.34 44.0903H227.715V44.5853H224.925V46.4603H227.018V46.9553H224.925V48.8378H227.715V49.3328H224.34V44.0903ZM230.643 44.0903H231.228V48.8378H234.018V49.3328H230.643V44.0903ZM243.024 49.4453C242.734 49.4453 242.449 49.4203 242.169 49.3703C241.889 49.3203 241.659 49.2528 241.479 49.1678V48.6128C241.949 48.8178 242.454 48.9203 242.994 48.9203C243.444 48.9203 243.774 48.8478 243.984 48.7028C244.199 48.5578 244.306 48.3403 244.306 48.0503C244.306 47.8453 244.261 47.6828 244.171 47.5628C244.086 47.4428 243.961 47.3428 243.796 47.2628C243.631 47.1778 243.346 47.0528 242.941 46.8878C242.446 46.6878 242.086 46.4703 241.861 46.2353C241.641 45.9953 241.531 45.6928 241.531 45.3278C241.531 45.0628 241.601 44.8278 241.741 44.6228C241.886 44.4178 242.089 44.2603 242.349 44.1503C242.609 44.0353 242.909 43.9778 243.249 43.9778C243.524 43.9778 243.771 44.0003 243.991 44.0453C244.216 44.0853 244.436 44.1528 244.651 44.2478V44.7803C244.231 44.5953 243.791 44.5028 243.331 44.5028C242.931 44.5028 242.629 44.5753 242.424 44.7203C242.219 44.8653 242.116 45.0678 242.116 45.3278C242.116 45.5028 242.159 45.6528 242.244 45.7778C242.329 45.9028 242.461 46.0178 242.641 46.1228C242.826 46.2278 243.079 46.3428 243.399 46.4678C243.759 46.6078 244.041 46.7403 244.246 46.8653C244.451 46.9853 244.609 47.1403 244.719 47.3303C244.834 47.5153 244.891 47.7553 244.891 48.0503C244.891 48.4953 244.734 48.8403 244.419 49.0853C244.104 49.3253 243.639 49.4453 243.024 49.4453ZM247.822 44.0903H248.407V49.3328H247.822V44.0903ZM252.072 44.5853V46.4603H254.164V46.9553H252.072V48.8378H254.862V49.3328H254.652C254.457 49.4678 254.309 49.6028 254.209 49.7378C254.109 49.8728 254.059 50.0178 254.059 50.1728C254.059 50.2978 254.087 50.3878 254.142 50.4428C254.202 50.4978 254.294 50.5253 254.419 50.5253C254.544 50.5253 254.662 50.5003 254.772 50.4503V50.8253C254.647 50.8803 254.482 50.9078 254.277 50.9078C254.067 50.9078 253.892 50.8503 253.752 50.7353C253.617 50.6253 253.549 50.4653 253.549 50.2553C253.549 50.0703 253.602 49.8978 253.707 49.7378C253.812 49.5778 253.947 49.4428 254.112 49.3328H251.487V44.0903H254.862V44.5853H252.072ZM262.663 44.0903H264.283C264.843 44.0903 265.328 44.1953 265.738 44.4053C266.153 44.6153 266.471 44.9153 266.691 45.3053C266.911 45.6953 267.021 46.1553 267.021 46.6853C267.021 47.5603 266.771 48.2203 266.271 48.6653C265.771 49.1103 265.068 49.3328 264.163 49.3328H262.663V44.0903ZM264.126 48.8378C264.916 48.8378 265.498 48.6578 265.873 48.2978C266.248 47.9328 266.436 47.3953 266.436 46.6853C266.436 46.0253 266.253 45.5103 265.888 45.1403C265.523 44.7703 264.986 44.5853 264.276 44.5853H263.248V48.8378H264.126ZM272.542 49.4453C272.027 49.4453 271.56 49.3328 271.14 49.1078C270.725 48.8778 270.397 48.5553 270.157 48.1403C269.917 47.7253 269.797 47.2503 269.797 46.7153C269.797 46.1803 269.917 45.7053 270.157 45.2903C270.397 44.8753 270.725 44.5528 271.14 44.3228C271.555 44.0928 272.022 43.9778 272.542 43.9778C273.062 43.9778 273.53 44.0928 273.945 44.3228C274.36 44.5528 274.687 44.8753 274.927 45.2903C275.167 45.7053 275.287 46.1803 275.287 46.7153C275.287 47.2503 275.167 47.7253 274.927 48.1403C274.687 48.5553 274.357 48.8778 273.937 49.1078C273.522 49.3328 273.057 49.4453 272.542 49.4453ZM272.542 48.9203C272.942 48.9203 273.307 48.8303 273.637 48.6503C273.967 48.4703 274.227 48.2153 274.417 47.8853C274.607 47.5503 274.702 47.1603 274.702 46.7153C274.702 46.2753 274.607 45.8903 274.417 45.5603C274.232 45.2253 273.975 44.9678 273.645 44.7878C273.32 44.6028 272.957 44.5103 272.557 44.5103C272.152 44.5103 271.785 44.6003 271.455 44.7803C271.125 44.9603 270.862 45.2178 270.667 45.5528C270.477 45.8878 270.382 46.2753 270.382 46.7153C270.382 47.1603 270.477 47.5503 270.667 47.8853C270.857 48.2153 271.117 48.4703 271.447 48.6503C271.777 48.8303 272.142 48.9203 272.542 48.9203ZM279.822 42.4928H280.43L279.83 43.7678H279.312L279.822 42.4928ZM279.417 49.4453C279.127 49.4453 278.842 49.4203 278.562 49.3703C278.282 49.3203 278.052 49.2528 277.872 49.1678V48.6128C278.342 48.8178 278.847 48.9203 279.387 48.9203C279.837 48.9203 280.167 48.8478 280.377 48.7028C280.592 48.5578 280.7 48.3403 280.7 48.0503C280.7 47.8453 280.655 47.6828 280.565 47.5628C280.48 47.4428 280.355 47.3428 280.19 47.2628C280.025 47.1778 279.74 47.0528 279.335 46.8878C278.84 46.6878 278.48 46.4703 278.255 46.2353C278.035 45.9953 277.925 45.6928 277.925 45.3278C277.925 45.0628 277.995 44.8278 278.135 44.6228C278.28 44.4178 278.482 44.2603 278.742 44.1503C279.002 44.0353 279.302 43.9778 279.642 43.9778C279.917 43.9778 280.165 44.0003 280.385 44.0453C280.61 44.0853 280.83 44.1528 281.045 44.2478V44.7803C280.625 44.5953 280.185 44.5028 279.725 44.5028C279.325 44.5028 279.022 44.5753 278.817 44.7203C278.612 44.8653 278.51 45.0678 278.51 45.3278C278.51 45.5028 278.552 45.6528 278.637 45.7778C278.722 45.9028 278.855 46.0178 279.035 46.1228C279.22 46.2278 279.472 46.3428 279.792 46.4678C280.152 46.6078 280.435 46.7403 280.64 46.8653C280.845 46.9853 281.002 47.1403 281.112 47.3303C281.227 47.5153 281.285 47.7553 281.285 48.0503C281.285 48.4953 281.127 48.8403 280.812 49.0853C280.497 49.3253 280.032 49.4453 279.417 49.4453ZM283.72 44.0903H284.328L285.618 48.3428L286.908 44.0903H287.373L288.64 48.3503L289.93 44.0903H290.538L288.97 49.3328H288.4L287.125 45.0503L285.858 49.3328H285.288L283.72 44.0903ZM293.469 44.0903H294.054V49.3328H293.469V44.0903ZM299.077 44.0903H299.624L301.717 49.3328H301.117L300.554 47.9303H298.139L297.584 49.3328H296.984L299.077 44.0903ZM300.389 47.4353L299.347 44.7653L298.312 47.4353H300.389ZM304.645 44.0903H306.265C306.825 44.0903 307.31 44.1953 307.72 44.4053C308.135 44.6153 308.452 44.9153 308.672 45.3053C308.892 45.6953 309.002 46.1553 309.002 46.6853C309.002 47.5603 308.752 48.2203 308.252 48.6653C307.752 49.1103 307.05 49.3328 306.145 49.3328H304.645V44.0903ZM306.107 48.8378C306.897 48.8378 307.48 48.6578 307.855 48.2978C308.23 47.9328 308.417 47.3953 308.417 46.6853C308.417 46.0253 308.235 45.5103 307.87 45.1403C307.505 44.7703 306.967 44.5853 306.257 44.5853H305.23V48.8378H306.107ZM314.341 49.4453C313.811 49.4453 313.336 49.3328 312.916 49.1078C312.501 48.8828 312.176 48.5653 311.941 48.1553C311.706 47.7403 311.588 47.2603 311.588 46.7153C311.588 46.1703 311.706 45.6928 311.941 45.2828C312.176 44.8678 312.501 44.5478 312.916 44.3228C313.336 44.0928 313.811 43.9778 314.341 43.9778C315.066 43.9778 315.666 44.1678 316.141 44.5478V45.1178C315.691 44.7128 315.106 44.5103 314.386 44.5103C313.961 44.5103 313.581 44.6003 313.246 44.7803C312.911 44.9603 312.648 45.2178 312.458 45.5528C312.268 45.8828 312.173 46.2703 312.173 46.7153C312.173 47.1603 312.268 47.5503 312.458 47.8853C312.653 48.2153 312.918 48.4703 313.253 48.6503C313.588 48.8303 313.966 48.9203 314.386 48.9203C314.761 48.9203 315.096 48.8703 315.391 48.7703C315.686 48.6703 315.958 48.5053 316.208 48.2753V48.8528C315.763 49.2478 315.141 49.4453 314.341 49.4453ZM318.982 48.9203L322.042 44.5853H319.057V44.0903H322.747V44.5103L319.694 48.8453H322.859V49.3328H318.982V48.9203ZM325.786 44.0903H329.161V44.5853H326.371V46.4603H328.463V46.9553H326.371V48.8378H329.161V49.3328H325.786V44.0903ZM332.088 44.0903H332.651L335.538 48.3353V44.0903H336.123V49.3328H335.561L332.673 45.0803V49.3328H332.088V44.0903ZM339.204 44.0903H339.789V49.3328H339.204V44.0903ZM344.812 44.0903H345.359L347.452 49.3328H346.852L346.289 47.9303H343.874L343.319 49.3328H342.719L344.812 44.0903ZM346.124 47.4353L345.082 44.7653L344.047 47.4353H346.124ZM350.19 44.0903H350.79L352.77 48.4178L354.75 44.0903H355.35V49.3328H354.772V45.2828L352.92 49.3328H352.62L350.767 45.2828V49.3328H350.19V44.0903ZM358.433 44.0903H359.018V49.3328H358.433V44.0903ZM362.031 44.0903H362.594V47.8928H362.031V44.0903ZM362.309 49.4453C362.209 49.4453 362.124 49.4103 362.054 49.3403C361.984 49.2703 361.949 49.1853 361.949 49.0853C361.949 48.9853 361.984 48.9003 362.054 48.8303C362.124 48.7603 362.209 48.7253 362.309 48.7253C362.409 48.7253 362.494 48.7603 362.564 48.8303C362.639 48.9003 362.676 48.9853 362.676 49.0853C362.676 49.1853 362.639 49.2703 362.564 49.3403C362.494 49.4103 362.409 49.4453 362.309 49.4453Z" fill="url(#paint0_linear_312_173)"/>
<mask id="mask0_312_173" style="mask-type:alpha" maskUnits="userSpaceOnUse" x="0" y="1" width="76" height="48">
<path d="M11.625 1H0L18.375 34.375L23.625 24.25L11.625 1Z" fill="white"/>
<path d="M37.125 8.5L20.625 38.875L26.25 49L37.125 29.875L49.125 49L54.75 38.875L37.125 8.5Z" fill="white"/>
<path d="M63.75 1L51.375 24.25L57 34.375L75.375 1H63.75Z" fill="white"/>
</mask>
<g mask="url(#mask0_312_173)">
<rect y="1" width="93.75" height="48" fill="url(#paint1_linear_312_173)"/>
</g>
<defs>
<linearGradient id="paint0_linear_312_173" x1="376.5" y1="46.6661" x2="109.809" y2="46.6663" gradientUnits="userSpaceOnUse">
<stop stop-color="#E76637"/>
<stop offset="1" stop-color="#FAAE11"/>
</linearGradient>
<linearGradient id="paint1_linear_312_173" x1="93.75" y1="25" x2="5.36132e-07" y2="25" gradientUnits="userSpaceOnUse">
<stop stop-color="#FF9900"/>
<stop offset="0.4" stop-color="#E76637"/>
<stop offset="1" stop-color="#9126D9"/>
</linearGradient>
</defs>
</svg>
